<mxfile host="Electron" agent="Mozilla/5.0 (Windows NT 10.0; Win64; x64) AppleWebKit/537.36 (KHTML, like Gecko) draw.io/24.7.5 Chrome/126.0.6478.183 Electron/31.3.0 Safari/537.36" version="24.7.5">
  <diagram name="第 1 页" id="SfLChQqZt8kl3xRZpHfr">
    <mxGraphModel dx="1185" dy="683" grid="1" gridSize="10" guides="1" tooltips="1" connect="1" arrows="1" fold="1" page="1" pageScale="1" pageWidth="827" pageHeight="1169" math="0" shadow="0">
      <root>
        <mxCell id="0" />
        <mxCell id="1" parent="0" />
        <mxCell id="IzD3qeflEV2fJDBBaDgi-1" value="4" style="ellipse;whiteSpace=wrap;html=1;aspect=fixed;sketch=1;curveFitting=1;jiggle=2;" vertex="1" parent="1">
          <mxGeometry x="360" y="320" width="40" height="40" as="geometry" />
        </mxCell>
        <mxCell id="IzD3qeflEV2fJDBBaDgi-2" value="2" style="ellipse;whiteSpace=wrap;html=1;aspect=fixed;sketch=1;curveFitting=1;jiggle=2;" vertex="1" parent="1">
          <mxGeometry x="240" y="440" width="40" height="40" as="geometry" />
        </mxCell>
        <mxCell id="IzD3qeflEV2fJDBBaDgi-3" value="3" style="ellipse;whiteSpace=wrap;html=1;aspect=fixed;sketch=1;curveFitting=1;jiggle=2;" vertex="1" parent="1">
          <mxGeometry x="320" y="520" width="40" height="40" as="geometry" />
        </mxCell>
        <mxCell id="IzD3qeflEV2fJDBBaDgi-4" value="1" style="ellipse;whiteSpace=wrap;html=1;aspect=fixed;sketch=1;curveFitting=1;jiggle=2;" vertex="1" parent="1">
          <mxGeometry x="160" y="520" width="40" height="40" as="geometry" />
        </mxCell>
        <mxCell id="IzD3qeflEV2fJDBBaDgi-5" value="6" style="ellipse;whiteSpace=wrap;html=1;aspect=fixed;sketch=1;curveFitting=1;jiggle=2;" vertex="1" parent="1">
          <mxGeometry x="480" y="440" width="40" height="40" as="geometry" />
        </mxCell>
        <mxCell id="IzD3qeflEV2fJDBBaDgi-6" value="7" style="ellipse;whiteSpace=wrap;html=1;aspect=fixed;sketch=1;curveFitting=1;jiggle=2;" vertex="1" parent="1">
          <mxGeometry x="560" y="520" width="40" height="40" as="geometry" />
        </mxCell>
        <mxCell id="IzD3qeflEV2fJDBBaDgi-7" value="5" style="ellipse;whiteSpace=wrap;html=1;aspect=fixed;sketch=1;curveFitting=1;jiggle=2;" vertex="1" parent="1">
          <mxGeometry x="400" y="520" width="40" height="40" as="geometry" />
        </mxCell>
        <mxCell id="IzD3qeflEV2fJDBBaDgi-8" value="" style="endArrow=none;html=1;rounded=0;exitX=0.746;exitY=0.039;exitDx=0;exitDy=0;exitPerimeter=0;entryX=0.246;entryY=0.882;entryDx=0;entryDy=0;entryPerimeter=0;sketch=1;curveFitting=1;jiggle=2;" edge="1" parent="1" source="IzD3qeflEV2fJDBBaDgi-4" target="IzD3qeflEV2fJDBBaDgi-2">
          <mxGeometry width="50" height="50" relative="1" as="geometry">
            <mxPoint x="410" y="490" as="sourcePoint" />
            <mxPoint x="460" y="440" as="targetPoint" />
          </mxGeometry>
        </mxCell>
        <mxCell id="IzD3qeflEV2fJDBBaDgi-9" value="" style="endArrow=none;html=1;rounded=0;entryX=0.846;entryY=0.768;entryDx=0;entryDy=0;entryPerimeter=0;sketch=1;curveFitting=1;jiggle=2;" edge="1" parent="1" source="IzD3qeflEV2fJDBBaDgi-3" target="IzD3qeflEV2fJDBBaDgi-2">
          <mxGeometry width="50" height="50" relative="1" as="geometry">
            <mxPoint x="200" y="532" as="sourcePoint" />
            <mxPoint x="260" y="485" as="targetPoint" />
          </mxGeometry>
        </mxCell>
        <mxCell id="IzD3qeflEV2fJDBBaDgi-10" value="" style="endArrow=none;html=1;rounded=0;exitX=0.832;exitY=0.025;exitDx=0;exitDy=0;exitPerimeter=0;entryX=0.046;entryY=0.811;entryDx=0;entryDy=0;entryPerimeter=0;sketch=1;curveFitting=1;jiggle=2;" edge="1" parent="1" source="IzD3qeflEV2fJDBBaDgi-2" target="IzD3qeflEV2fJDBBaDgi-1">
          <mxGeometry width="50" height="50" relative="1" as="geometry">
            <mxPoint x="210" y="542" as="sourcePoint" />
            <mxPoint x="270" y="495" as="targetPoint" />
          </mxGeometry>
        </mxCell>
        <mxCell id="IzD3qeflEV2fJDBBaDgi-11" value="" style="endArrow=none;html=1;rounded=0;exitX=0.304;exitY=0.111;exitDx=0;exitDy=0;exitPerimeter=0;sketch=1;curveFitting=1;jiggle=2;entryX=1.018;entryY=0.725;entryDx=0;entryDy=0;entryPerimeter=0;" edge="1" parent="1" source="IzD3qeflEV2fJDBBaDgi-5" target="IzD3qeflEV2fJDBBaDgi-1">
          <mxGeometry width="50" height="50" relative="1" as="geometry">
            <mxPoint x="283" y="451" as="sourcePoint" />
            <mxPoint x="372" y="362" as="targetPoint" />
          </mxGeometry>
        </mxCell>
        <mxCell id="IzD3qeflEV2fJDBBaDgi-12" value="" style="endArrow=none;html=1;rounded=0;exitX=0.861;exitY=0.068;exitDx=0;exitDy=0;exitPerimeter=0;entryX=-0.068;entryY=0.639;entryDx=0;entryDy=0;entryPerimeter=0;sketch=1;curveFitting=1;jiggle=2;" edge="1" parent="1" source="IzD3qeflEV2fJDBBaDgi-7" target="IzD3qeflEV2fJDBBaDgi-5">
          <mxGeometry width="50" height="50" relative="1" as="geometry">
            <mxPoint x="293" y="461" as="sourcePoint" />
            <mxPoint x="382" y="372" as="targetPoint" />
          </mxGeometry>
        </mxCell>
        <mxCell id="IzD3qeflEV2fJDBBaDgi-13" value="" style="endArrow=none;html=1;rounded=0;exitX=0.075;exitY=0.282;exitDx=0;exitDy=0;exitPerimeter=0;entryX=0.975;entryY=0.682;entryDx=0;entryDy=0;entryPerimeter=0;sketch=1;curveFitting=1;jiggle=2;" edge="1" parent="1" source="IzD3qeflEV2fJDBBaDgi-6" target="IzD3qeflEV2fJDBBaDgi-5">
          <mxGeometry width="50" height="50" relative="1" as="geometry">
            <mxPoint x="303" y="471" as="sourcePoint" />
            <mxPoint x="392" y="382" as="targetPoint" />
          </mxGeometry>
        </mxCell>
      </root>
    </mxGraphModel>
  </diagram>
</mxfile>
